#!OML:ASF E:\motion texture\Top Level 1\Subject 1\Session 1\male.ASF
:FULLY-SPECIFIED
:DEGREES
662
root -42.8008 17.5537 -0.627606 173.652 -77.3252 -171.134
lowerback 1.12568 -3.51368 0.490218
upperback 0.719151 -4.71063 2.23954
thorax 0.256816 -2.37235 2.05588
lowerneck -13.1516 -7.74107 -10.7778
upperneck 11.056 -9.57591 7.95854
head 6.41973 -4.52614 3.3245
rclavicle -2.95941e-014 9.93923e-015
rhumerus 6.29981 22.8767 -78.2303
rradius 91.8118
rwrist 37.6879
rhand -49.3058 -41.0417
rfingers 7.12502
rthumb -21.9227 290.18
lclavicle -2.95941e-014 9.93923e-015
lhumerus 5.6178 -27.2527 99.9275
lradius 66.2916
lwrist 27.4861
lhand -8.73183 43.3493
lfingers 7.12502
lthumb 17.2046 72.6077
rfemur -36.1887 -0.221186 18.7154
rtibia 28.9651
rfoot 1.48973 -12.6676
rtoes -2.25538
lfemur -5.57725 -4.34198 -24.4366
ltibia 28.902
lfoot -19.7368 3.39593
ltoes -0.716183
663
root -42.9128 17.5042 -0.646454 174.486 -77.2908 -171.968
lowerback 1.35568 -3.41942 0.42559
upperback 0.885959 -4.58455 2.14054
thorax 0.292002 -2.30984 1.99863
lowerneck -12.9556 -7.72031 -10.8337
upperneck 11.1199 -9.56808 7.98682
head 6.41057 -4.52802 3.34881
rclavicle -3.13334e-014 -1.59028e-015
rhumerus 6.59805 23.4512 -78.5906
rradius 91.3594
rwrist 38.5606
rhand -48.4863 -39.3679
rfingers 7.12502
rthumb -21.1356 291.764
lclavicle -3.13334e-014 -1.59028e-015
lhumerus 5.93122 -26.7733 100.638
lradius 65.903
lwrist 28.5898
lhand -8.7429 44.0364
lfingers 7.12502
lthumb 17.1939 73.2957
rfemur -36.3742 -0.273337 18.7518
rtibia 26.5481
rfoot 3.22219 -12.3105
rtoes -2.86033
lfemur -5.59728 -4.03673 -24.6484
ltibia 29.7268
lfoot -20.3425 3.25173
ltoes -1.18083
664
root -43.0228 17.4544 -0.665653 175.362 -77.2512 -172.839
lowerback 1.49154 -3.32855 0.472012
upperback 1.13189 -4.46403 1.92199
thorax 0.443141 -2.2491 1.74817
lowerneck -12.7744 -7.67138 -10.7385
upperneck 11.1473 -9.5546 8.06377
head 6.38675 -4.5174 3.36571
rclavicle 1.12313e-014 -2.3059e-014
rhumerus 6.92861 23.9476 -79.169
rradius 90.8724
rwrist 39.4575
rhand -49.8774 -41.6613
rfingers 7.12502
rthumb -22.4715 289.626
lclavicle 1.12313e-014 -2.3059e-014
lhumerus 6.30835 -26.3869 101.13
lradius 65.4965
lwrist 29.6843
lhand -8.91917 44.5948
lfingers 7.12502
lthumb 17.0242 73.8688
rfemur -36.5228 -0.326571 18.7913
rtibia 24.1188
rfoot 5.27164 -12.2249
rtoes -3.52684
lfemur -5.65923 -3.59837 -24.8454
ltibia 30.6334
lfoot -20.9165 3.09818
ltoes -2.12389
665
root -43.1389 17.4044 -0.686032 176.016 -77.2072 -173.424
lowerback 1.64091 -3.23944 0.446103
upperback 1.33016 -4.34773 1.82307
thorax 0.553878 -2.19197 1.66258
lowerneck -12.657 -7.6177 -10.6769
upperneck 11.2353 -9.50928 8.04192
head 6.38639 -4.49797 3.35741
rclavicle 4.45775e-014 -2.5842e-014
rhumerus 7.1178 24.4263 -79.7076
rradius 90.3465
rwrist 40.392
rhand -49.4385 -40.923
rfingers 7.12502
rthumb -22.0501 290.314
lclavicle 4.45775e-014 -2.5842e-014
lhumerus 6.55186 -25.8366 101.785
lradius 64.9882
lwrist 30.7121
lhand -9.02015 44.5475
lfingers 7.12502
lthumb 16.927 73.8299
rfemur -36.6297 -0.377952 18.9014
rtibia 21.5906
rfoot 7.52827 -12.4913
rtoes -4.00745
lfemur -5.7544 -3.18283 -24.9714
ltibia 31.5024
lfoot -21.4454 2.86729
ltoes -2.62004
666
root -43.2493 17.3552 -0.714384 176.55 -77.1158 -173.836
lowerback 1.84883 -3.11126 0.323101
upperback 1.473 -4.17958 1.79602
thorax 0.586437 -2.11014 1.7092
lowerneck -12.5816 -7.60901 -10.684
upperneck 11.442 -9.50868 7.97297
head 6.43614 -4.5053 3.33732
rclavicle -5.19325e-014 1.72943e-014
rhumerus 7.20187 25.0029 -80.1537
rradius 89.8421
rwrist 41.2694
rhand -47.3208 -37.8895
rfingers 7.12502
rthumb -20.0156 293.121
lclavicle -5.19325e-014 1.72943e-014
lhumerus 6.75889 -25.3648 102.5
lradius 64.5875
lwrist 32.1873
lhand -9.04149 45.3772
lfingers 7.12502
lthumb 16.9065 74.6613
rfemur -36.7438 -0.0239181 18.9284
rtibia 19.0384
rfoot 9.76605 -13.4644
rtoes -3.90971
lfemur -5.9387 -2.60854 -24.9468
ltibia 32.3847
lfoot -21.9862 2.68629
ltoes -4.46181
667
root -43.3591 17.3043 -0.738066 177.621 -77.1391 -174.762
lowerback 2.02711 -3.03239 0.135677
upperback 1.64529 -4.07877 1.71183
thorax 0.667519 -2.06247 1.73068
lowerneck -12.5289 -7.551 -10.6815
upperneck 11.61 -9.44554 7.95667
head 6.4737 -4.47774 3.33962
rclavicle 6.18717e-015 -1.49089e-014
rhumerus 7.24141 25.4644 -80.7494
rradius 89.2624
rwrist 42.1886
rhand -47.5942 -38.2556
rfingers 7.12502
rthumb -20.2784 292.783
lclavicle 6.18717e-015 -1.49089e-014
lhumerus 6.95359 -24.7249 103.131
lradius 64.1286
lwrist 33.0014
lhand -7.73517 46.292
lfingers 7.12502
lthumb 18.1636 75.4639
rfemur -36.8733 0.247711 18.725
rtibia 16.5423
rfoot 10.485 -15.714
rtoes -9.185
lfemur -6.20508 -2.16919 -25.106
ltibia 33.319
lfoot -22.5149 2.37738
ltoes -4.20483
668
root -43.4689 17.255 -0.765883 178.482 -77.2133 -175.466
lowerback 2.02929 -2.9567 0.161109
upperback 1.91661 -3.98231 1.4916
thorax 0.924122 -2.01479 1.48125
lowerneck -12.4645 -7.50705 -10.5693
upperneck 11.7166 -9.43684 8.04859
head 6.49508 -4.46439 3.354
rclavicle -1.43125e-014 1.03368e-014
rhumerus 7.18204 25.6897 -81.5987
rradius 88.6516
rwrist 43.1674
rhand -49.7504 -41.2921
rfingers 7.12502
rthumb -22.3495 289.981
lclavicle -1.43125e-014 1.03368e-014
lhumerus 7.08741 -24.7497 103.487
lradius 63.7776
lwrist 35.9342
lhand -10.6417 45.2276
lfingers 7.12502
lthumb 15.3657 74.6366
rfemur -36.9688 0.641393 18.4966
rtibia 14.1884
rfoot 11.3972 -18.0963
rtoes -12.2832
lfemur -6.47336 -1.68053 -25.181
ltibia 34.2702
lfoot -23.022 2.04369
ltoes -4.6154
